# xmcd
#
# Track frame offsets: 
#        150
#        17075
#        31084
#        55223
#        74208
#        89219
#        109941
#        125983
#        141508
#        166140
#
# Disc length: 2385 seconds
#
# Revision: 0
# Processed by: cddbd v1.5.2PL0 Copyright (c) Steve Scherf et al.
# Submitted via: ExactAudioCopy v1.0b3
#
DISCID=9b094f0a
DTITLE=Buddy Guy - Rhythm and Blues [CD2]
DYEAR=2013
DGENRE=Blues
TTITLE0=Meet Me In Chicago
TTITLE1=Too Damn Bad
TTITLE2=Evil Twin
TTITLE3=I Could Die Happy
TTITLE4=Never Gonna Change
TTITLE5=All That Makes Me Happy Is The Blues
TTITLE6=My Mama Loved Me
TTITLE7=Blues Don't Care
TTITLE8=I Came Up Hard
TTITLE9=Poison Ivy
EXTD=
EXTT0=
EXTT1=
EXTT2=
EXTT3=
EXTT4=
EXTT5=
EXTT6=
EXTT7=
EXTT8=
EXTT9=
PLAYORDER=
